# xmcd CD database file
#
# Track frame offsets:
#	150
#	26812
#	42749
#	56164
#	69635
#	82063
#	96752
#	110744
#	124903
#	137623
#	149831
#	164813
#	181078
#	195703
#	209624
#	221962
#	235876
#	248988
#	275008
#	288916
#	303850
#	316223
#	328689
#	340803
#
# Disc length: 4711 seconds
#
# Revision: 0
# Processed by: cddbd v1.5.2PL0 Copyright (c) Steve Scherf et al.
# Submitted via: CDex 1.70beta2
#
DISCID=8f126518
DTITLE=Various Artist - The Story Of Big Bands 1914 - 1955 (4)
DYEAR=2006
DGENRE=Jazz
TTITLE0=Duke Ellington And His Famous Orchstra, Diminuendo And Crescendo In Blue
TTITLE1=Bob Crosby And His Orchestra, South Rampart Street Parade
TTITLE2=Count Basie And His Orchestra, Sent For You Yesterday
TTITLE3=Lyle 'Spud' Murphy And His Orchestra, Transcontinental
TTITLE4=Chick Webb And His Orchestra, Liza
TTITLE5=Artie Shaw And His Orchestra, Begin The Beguine
TTITLE6=Andy Kirk And His Orchestra, Mess-A-Stomp
TTITLE7=Tommy Dorsey And His Orchestra, Boogie Woogie
TTITLE8=Glenn Miller And His Orchestra, Runnin' Wild
TTITLE9=Earl Hines And His Orchestra, Grand terrace Shuffle
TTITLE10=Erskine Hawkins And His Orchestra, Tuxedo Junction
TTITLE11=Glenn Miller And His Orchestra, In The Mood
TTITLE12=Benny Goodman And His Orchestra, Stealin' Apples
TTITLE13=Charlie Barnet And His Orchestra, The Duke's Idea
TTITLE14=Teddy Powell And His Orchestra, Jamaica Jam
TTITLE15=Count Basie And His Orchestra, Riff Interlude
TTITLE16=Jimmie Lunceford And His Orchestra, Uptown Blues
TTITLE17=Gene Krupa And His Orchestra, Blue Rhythm Fantasy
TTITLE18=Andy Kirk And His Twelve Clouds Of Joy, Wham
TTITLE19=Don Redman And His Orchestra, Chant Of The Weed
TTITLE20=Earl Hines And His Orchestra, Boogie Woogie On St. Louis Blues
TTITLE21=Horace Henderson And His Orchestra, Kitty On Toast
TTITLE22=Duke Ellington And His Orchestra, Ko-Ko
TTITLE23=Cab Calloway And His Orchestra, Pickin' The Cabbage
EXTD=YEAR: 2006
EXTT0=
EXTT1=
EXTT2=
EXTT3=
EXTT4=
EXTT5=
EXTT6=
EXTT7=
EXTT8=
EXTT9=
EXTT10=
EXTT11=
EXTT12=
EXTT13=
EXTT14=
EXTT15=
EXTT16=
EXTT17=
EXTT18=
EXTT19=
EXTT20=
EXTT21=
EXTT22=
EXTT23=
PLAYORDER=
